<?xml version="1.0" encoding="UTF-8"?>
<svg width="228px" height="40px" viewBox="0 0 228 40" version="1.1" xmlns="http://www.w3.org/2000/svg" xmlns:xlink="http://www.w3.org/1999/xlink">
    <title>编组 2备份</title>
    <g id="页面-1" stroke="none" stroke-width="1" fill="none" fill-rule="evenodd">
        <g id="web" transform="translate(-180.000000, -2835.000000)">
            <g id="编组-2备份" transform="translate(180.000000, 2835.000000)">
                <text id="TON-Community" font-family="Arial-BoldMT, Arial" font-size="24" font-weight="bold" letter-spacing="-0.886037434" fill="#FFFFFF">
                    <tspan x="50" y="29">TON Community</tspan>
                </text>
                <g id="编组" fill-rule="nonzero">
                    <circle id="椭圆形" fill="#28A5E7" cx="20" cy="20" r="20"></circle>
                    <path d="M28.6262556,10.9090909 C30.3715933,10.9090909 31.4694671,12.7877281 30.6108735,14.3273631 L30.6108735,14.3273631 L20.1388471,33.2973614 C20.0121694,33.5233629 19.7728892,33.6363636 19.5476843,33.6363636 C19.3224795,33.6363636 19.0831993,33.5233629 18.9565216,33.2832363 L18.9565216,33.2832363 L8.47041988,14.2991129 C7.62590163,12.773603 8.73785066,10.9090909 10.4691131,10.9090909 L10.4691131,10.9090909 Z M28.6262556,12.0532233 L20.1106965,12.0532233 L20.1106965,31.0232217 L29.6256022,13.7764845 C29.9211836,13.2397311 29.7241293,12.7877281 29.6256022,12.6323521 C29.5270751,12.4487259 29.2314937,12.0532233 28.6262556,12.0532233 L28.6262556,12.0532233 Z M18.9846722,12.0532233 L10.4691131,12.0532233 C9.86387501,12.0532233 9.56829362,12.4487259 9.46976649,12.618227 C9.37123936,12.7877281 9.1741851,13.2397311 9.45569118,13.7623595 L9.45569118,13.7623595 L18.9846722,31.0090966 L18.9846722,12.0532233 Z" id="形状结合" fill="#FFFFFF"></path>
                </g>
            </g>
        </g>
    </g>
</svg>