<?xml version="1.0" encoding="UTF-8"?>
<svg width="224px" height="32px" viewBox="0 0 224 32" version="1.1" xmlns="http://www.w3.org/2000/svg" xmlns:xlink="http://www.w3.org/1999/xlink">
    <title>编组 2备份</title>
    <defs>
        <path d="M18.5555262,31.472544 L35.6907914,11.2346885 C35.9651871,10.9106094 35.994733,10.4440813 35.7634292,10.0877454 L31.5988191,3.6719433 C31.5305008,3.56669534 31.4328641,3.4839217 31.3180486,3.43391393 L23.5555512,0.0529664035 C23.4753345,0.0180280835 23.3888212,0 23.3013757,0 L12.2678194,0 C12.1771508,0 12.0875221,0.0193812278 12.0048987,0.0568537183 L4.56217364,3.43238211 C4.4496422,3.48341892 4.354274,3.56611263 4.28762437,3.67044358 L0.183505495,10.094884 C-0.0421628332,10.4481371 -0.0133854874,10.9074849 0.254592852,11.2295898 L17.0906276,31.4661858 C17.4296091,31.8736352 18.0335312,31.9281544 18.4395254,31.5879579 C18.481397,31.5528723 18.520205,31.5142606 18.5555262,31.472544 Z" id="path-1"></path>
        <path d="M18.5555262,31.472544 L35.6907914,11.2346885 C35.9651871,10.9106094 35.994733,10.4440813 35.7634292,10.0877454 L31.5988191,3.6719433 C31.5305008,3.56669534 31.4328641,3.4839217 31.3180486,3.43391393 L23.5555512,0.0529664035 C23.4753345,0.0180280835 23.3888212,0 23.3013757,0 L12.2678194,0 C12.1771508,0 12.0875221,0.0193812278 12.0048987,0.0568537183 L4.56217364,3.43238211 C4.4496422,3.48341892 4.354274,3.56611263 4.28762437,3.67044358 L0.183505495,10.094884 C-0.0421628332,10.4481371 -0.0133854874,10.9074849 0.254592852,11.2295898 L17.0906276,31.4661858 C17.4296091,31.8736352 18.0335312,31.9281544 18.4395254,31.5879579 C18.481397,31.5528723 18.520205,31.5142606 18.5555262,31.472544 Z" id="path-3"></path>
        <path d="M18.5555262,31.472544 L35.6907914,11.2346885 C35.9651871,10.9106094 35.994733,10.4440813 35.7634292,10.0877454 L31.5988191,3.6719433 C31.5305008,3.56669534 31.4328641,3.4839217 31.3180486,3.43391393 L23.5555512,0.0529664035 C23.4753345,0.0180280835 23.3888212,0 23.3013757,0 L12.2678194,0 C12.1771508,0 12.0875221,0.0193812278 12.0048987,0.0568537183 L4.56217364,3.43238211 C4.4496422,3.48341892 4.354274,3.56611263 4.28762437,3.67044358 L0.183505495,10.094884 C-0.0421628332,10.4481371 -0.0133854874,10.9074849 0.254592852,11.2295898 L17.0906276,31.4661858 C17.4296091,31.8736352 18.0335312,31.9281544 18.4395254,31.5879579 C18.481397,31.5528723 18.520205,31.5142606 18.5555262,31.472544 Z" id="path-5"></path>
        <path d="M18.5555262,31.472544 L35.6907914,11.2346885 C35.9651871,10.9106094 35.994733,10.4440813 35.7634292,10.0877454 L31.5988191,3.6719433 C31.5305008,3.56669534 31.4328641,3.4839217 31.3180486,3.43391393 L23.5555512,0.0529664035 C23.4753345,0.0180280835 23.3888212,0 23.3013757,0 L12.2678194,0 C12.1771508,0 12.0875221,0.0193812278 12.0048987,0.0568537183 L4.56217364,3.43238211 C4.4496422,3.48341892 4.354274,3.56611263 4.28762437,3.67044358 L0.183505495,10.094884 C-0.0421628332,10.4481371 -0.0133854874,10.9074849 0.254592852,11.2295898 L17.0906276,31.4661858 C17.4296091,31.8736352 18.0335312,31.9281544 18.4395254,31.5879579 C18.481397,31.5528723 18.520205,31.5142606 18.5555262,31.472544 Z" id="path-7"></path>
        <path d="M18.5555262,31.472544 L35.6907914,11.2346885 C35.9651871,10.9106094 35.994733,10.4440813 35.7634292,10.0877454 L31.5988191,3.6719433 C31.5305008,3.56669534 31.4328641,3.4839217 31.3180486,3.43391393 L23.5555512,0.0529664035 C23.4753345,0.0180280835 23.3888212,0 23.3013757,0 L12.2678194,0 C12.1771508,0 12.0875221,0.0193812278 12.0048987,0.0568537183 L4.56217364,3.43238211 C4.4496422,3.48341892 4.354274,3.56611263 4.28762437,3.67044358 L0.183505495,10.094884 C-0.0421628332,10.4481371 -0.0133854874,10.9074849 0.254592852,11.2295898 L17.0906276,31.4661858 C17.4296091,31.8736352 18.0335312,31.9281544 18.4395254,31.5879579 C18.481397,31.5528723 18.520205,31.5142606 18.5555262,31.472544 Z" id="path-9"></path>
        <path d="M18.5555262,31.472544 L35.6907914,11.2346885 C35.9651871,10.9106094 35.994733,10.4440813 35.7634292,10.0877454 L31.5988191,3.6719433 C31.5305008,3.56669534 31.4328641,3.4839217 31.3180486,3.43391393 L23.5555512,0.0529664035 C23.4753345,0.0180280835 23.3888212,0 23.3013757,0 L12.2678194,0 C12.1771508,0 12.0875221,0.0193812278 12.0048987,0.0568537183 L4.56217364,3.43238211 C4.4496422,3.48341892 4.354274,3.56611263 4.28762437,3.67044358 L0.183505495,10.094884 C-0.0421628332,10.4481371 -0.0133854874,10.9074849 0.254592852,11.2295898 L17.0906276,31.4661858 C17.4296091,31.8736352 18.0335312,31.9281544 18.4395254,31.5879579 C18.481397,31.5528723 18.520205,31.5142606 18.5555262,31.472544 Z" id="path-11"></path>
        <path d="M18.5555262,31.472544 L35.6907914,11.2346885 C35.9651871,10.9106094 35.994733,10.4440813 35.7634292,10.0877454 L31.5988191,3.6719433 C31.5305008,3.56669534 31.4328641,3.4839217 31.3180486,3.43391393 L23.5555512,0.0529664035 C23.4753345,0.0180280835 23.3888212,0 23.3013757,0 L12.2678194,0 C12.1771508,0 12.0875221,0.0193812278 12.0048987,0.0568537183 L4.56217364,3.43238211 C4.4496422,3.48341892 4.354274,3.56611263 4.28762437,3.67044358 L0.183505495,10.094884 C-0.0421628332,10.4481371 -0.0133854874,10.9074849 0.254592852,11.2295898 L17.0906276,31.4661858 C17.4296091,31.8736352 18.0335312,31.9281544 18.4395254,31.5879579 C18.481397,31.5528723 18.520205,31.5142606 18.5555262,31.472544 Z" id="path-13"></path>
        <path d="M18.5555262,31.472544 L35.6907914,11.2346885 C35.9651871,10.9106094 35.994733,10.4440813 35.7634292,10.0877454 L31.5988191,3.6719433 C31.5305008,3.56669534 31.4328641,3.4839217 31.3180486,3.43391393 L23.5555512,0.0529664035 C23.4753345,0.0180280835 23.3888212,0 23.3013757,0 L12.2678194,0 C12.1771508,0 12.0875221,0.0193812278 12.0048987,0.0568537183 L4.56217364,3.43238211 C4.4496422,3.48341892 4.354274,3.56611263 4.28762437,3.67044358 L0.183505495,10.094884 C-0.0421628332,10.4481371 -0.0133854874,10.9074849 0.254592852,11.2295898 L17.0906276,31.4661858 C17.4296091,31.8736352 18.0335312,31.9281544 18.4395254,31.5879579 C18.481397,31.5528723 18.520205,31.5142606 18.5555262,31.472544 Z" id="path-15"></path>
        <path d="M18.5555262,31.472544 L35.6907914,11.2346885 C35.9651871,10.9106094 35.994733,10.4440813 35.7634292,10.0877454 L31.5988191,3.6719433 C31.5305008,3.56669534 31.4328641,3.4839217 31.3180486,3.43391393 L23.5555512,0.0529664035 C23.4753345,0.0180280835 23.3888212,0 23.3013757,0 L12.2678194,0 C12.1771508,0 12.0875221,0.0193812278 12.0048987,0.0568537183 L4.56217364,3.43238211 C4.4496422,3.48341892 4.354274,3.56611263 4.28762437,3.67044358 L0.183505495,10.094884 C-0.0421628332,10.4481371 -0.0133854874,10.9074849 0.254592852,11.2295898 L17.0906276,31.4661858 C17.4296091,31.8736352 18.0335312,31.9281544 18.4395254,31.5879579 C18.481397,31.5528723 18.520205,31.5142606 18.5555262,31.472544 Z" id="path-17"></path>
    </defs>
    <g id="页面-1" stroke="none" stroke-width="1" fill="none" fill-rule="evenodd">
        <g id="web" transform="translate(-174.000000, -2753.000000)">
            <g id="编组-2备份" transform="translate(174.000000, 2753.000000)">
                <text id="TON-Community" font-family="Arial-BoldMT, Arial" font-size="24" font-weight="bold" letter-spacing="-0.886037434" fill="#FFFFFF">
                    <tspan x="46" y="25">TON Community</tspan>
                </text>
                <g id="编组">
                    <g id="f-link" fill="#47A9F1" fill-rule="nonzero">
                        <path d="M18.5555262,31.472544 L35.6907914,11.2346885 C35.9651871,10.9106094 35.994733,10.4440813 35.7634292,10.0877454 L31.5988191,3.6719433 C31.5305008,3.56669534 31.4328641,3.4839217 31.3180486,3.43391393 L23.5555512,0.0529664035 C23.4753345,0.0180280835 23.3888212,0 23.3013757,0 L12.2678194,0 C12.1771508,0 12.0875221,0.0193812278 12.0048987,0.0568537183 L4.56217364,3.43238211 C4.4496422,3.48341892 4.354274,3.56611263 4.28762437,3.67044358 L0.183505495,10.094884 C-0.0421628332,10.4481371 -0.0133854874,10.9074849 0.254592852,11.2295898 L17.0906276,31.4661858 C17.4296091,31.8736352 18.0335312,31.9281544 18.4395254,31.5879579 C18.481397,31.5528723 18.520205,31.5142606 18.5555262,31.472544 Z" id="f"></path>
                    </g>
                    <g id="Clipped">
                        <mask id="mask-2" fill="white">
                            <use xlink:href="#path-1"></use>
                        </mask>
                        <g id="f"></g>
                        <path d="M17.901679,32.0971632 L20.2998515,29.4306697 L24.7458423,15.5921466 L11.0073363,15.6744049 L15.3736624,29.3500086 L17.6762805,32.093295 C17.7294934,32.1566916 17.8238407,32.1647926 17.8870109,32.1113889 C17.8922172,32.1069875 17.897118,32.1022346 17.901679,32.0971632 L17.901679,32.0971632 Z" id="路径" fill="#8DCCFC" fill-rule="nonzero" mask="url(#mask-2)"></path>
                    </g>
                    <g id="Clipped">
                        <mask id="mask-4" fill="white">
                            <use xlink:href="#path-3"></use>
                        </mask>
                        <g id="f"></g>
                        <polygon id="路径" fill="#BFE2F7" fill-rule="nonzero" mask="url(#mask-4)" points="11.0137522 15.8372978 17.8904639 6.58965819 5.72473597 4.9359369"></polygon>
                    </g>
                    <g id="Clipped">
                        <mask id="mask-6" fill="white">
                            <use xlink:href="#path-5"></use>
                        </mask>
                        <g id="f"></g>
                        <polygon id="路径" fill="#75C1FF" fill-rule="nonzero" mask="url(#mask-6)" points="24.6604914 15.668099 17.7685137 6.70788177 11.032773 15.8329679"></polygon>
                    </g>
                    <g id="Clipped">
                        <mask id="mask-8" fill="white">
                            <use xlink:href="#path-7"></use>
                        </mask>
                        <g id="f"></g>
                        <polygon id="路径" fill="#4BAEF7" fill-rule="nonzero" mask="url(#mask-8)" transform="translate(23.914186, 10.364592) scale(-1, 1) translate(-23.914186, -10.364592) " points="23.0779755 15.828692 29.9731516 6.77728643 17.8552197 4.9004927"></polygon>
                    </g>
                    <g id="Clipped">
                        <mask id="mask-10" fill="white">
                            <use xlink:href="#path-9"></use>
                        </mask>
                        <g id="f"></g>
                        <polygon id="路径" fill="#6EBEFF" fill-rule="nonzero" mask="url(#mask-10)" transform="translate(30.578956, 10.410280) rotate(2.000000) translate(-30.578956, -10.410280) " points="24.9625292 15.8674341 36.1953821 10.5972357 29.7905383 4.95312685"></polygon>
                    </g>
                    <g id="Clipped">
                        <mask id="mask-12" fill="white">
                            <use xlink:href="#path-11"></use>
                        </mask>
                        <g id="f"></g>
                        <polygon id="路径" fill="#87CBFF" fill-rule="nonzero" mask="url(#mask-12)" transform="translate(5.268990, 10.405212) scale(-1, 1) rotate(2.000000) translate(-5.268990, -10.405212) " points="-0.202206744 15.8623655 10.7401874 10.4975181 4.62580232 4.94805818"></polygon>
                    </g>
                    <g id="Clipped">
                        <mask id="mask-14" fill="white">
                            <use xlink:href="#path-13"></use>
                        </mask>
                        <g id="f"></g>
                        <path d="M11.9046273,6.25538874 L10.3855804,6.25463842 L11.9046273,6.25538874 Z" id="路径" fill="#FFFFFF" fill-rule="nonzero" mask="url(#mask-14)" transform="translate(11.145104, 6.255014) rotate(8.000000) translate(-11.145104, -6.255014) "></path>
                    </g>
                    <g id="Clipped">
                        <mask id="mask-16" fill="white">
                            <use xlink:href="#path-15"></use>
                        </mask>
                        <g id="f"></g>
                        <polygon id="路径" fill="#389BE3" fill-rule="nonzero" mask="url(#mask-16)" points="29.9731513 4.9359369 31.4288385 3.58468042 36.453427 11.3020767"></polygon>
                    </g>
                    <g id="Clipped">
                        <mask id="mask-18" fill="white">
                            <use xlink:href="#path-17"></use>
                        </mask>
                        <g id="f"></g>
                        <polygon id="路径" fill="#7EC7FF" fill-rule="nonzero" mask="url(#mask-18)" points="4.4638896 3.51641746 5.77348268 4.96160845 17.763272 6.79741523 30.0194169 4.92455976 31.4539416 3.53042014 23.4339428 0 12.1302559 0"></polygon>
                    </g>
                </g>
            </g>
        </g>
    </g>
</svg>